# xmcd
#
# Track frame offsets:
#	150
#	24643
#	40560
#	61384
#	71529
#	83856
#	102793
#	122697
#	128358
#	159776
#	181160
#	195140
#	207354
#	224940
#	248774
#	266074
#	280611
#	301327
#
# Disc length: 4212 seconds
#
# Revision: 0
# Processed by: cddbd v1.5.2PL0 Copyright (c) Steve Scherf et al.
# Submitted via: audiograbber 1.83.01
#
DISCID=ef107212
DTITLE=Dave Ray - Dave Ray - Legacy Disc 3
DYEAR=2002
DGENRE=Blues
TTITLE0=Shake 'Em on Down
TTITLE1=Coal Man
TTITLE2=My Mind is Trying to Leave Me
TTITLE3=Wild About Her
TTITLE4=With Body and Soul
TTITLE5=Trust in Me
TTITLE6=It Should Have Been Me
TTITLE7=Radio Spot
TTITLE8=Take Time to Know Her
TTITLE9=Got Loving If You Want It
TTITLE10=Fare Thee Well
TTITLE11=That Will Never Happen No More
TTITLE12=Rowdy Blues
TTITLE13=It's All Over Now
TTITLE14=Key to the Highway
TTITLE15=Almost As If
TTITLE16=So Glad I'm Living
TTITLE17=If It's Really Got to Be This Way
EXTD=
EXTT0=
EXTT1=
EXTT2=
EXTT3=
EXTT4=
EXTT5=
EXTT6=
EXTT7=
EXTT8=
EXTT9=
EXTT10=
EXTT11=
EXTT12=
EXTT13=
EXTT14=
EXTT15=
EXTT16=
EXTT17=
PLAYORDER=
